<?xml version="1.0" encoding="UTF-8"?>
<svg width="24px" height="24px" viewBox="0 0 24 24" version="1.1" xmlns="http://www.w3.org/2000/svg" xmlns:xlink="http://www.w3.org/1999/xlink">
    <title>basket</title>
    <defs>
        <polygon id="path-1" points="0 0.0001 16.56 0.0001 16.56 20.56 0 20.56"></polygon>
    </defs>
    <g id="basket" stroke="none" stroke-width="1" fill="none" fill-rule="evenodd">
        <g id="Group-3" transform="translate(3.500000, 1.500000)">
            <mask id="mask-2" fill="white">
                <use xlink:href="#path-1"></use>
            </mask>
            <g id="Clip-2"></g>
            <path d="M13.3396,19.0001 L13.3196,19.2401 L13.3196,19.0001 L3.2196,19.0001 C2.3806,19.0601 1.6506,18.4701 1.5496,17.7001 L2.6396,5.4701 L4.0796,5.4701 L4.0796,5.6601 C4.0696,5.9401 4.2196,6.2001 4.4606,6.3501 C4.6996,6.4901 5.0096,6.5001 5.2496,6.3501 C5.4996,6.2001 5.6396,5.9401 5.6306,5.6701 L5.6306,5.4701 L10.9306,5.4701 L10.9306,5.6601 C10.9196,5.9401 11.0606,6.2101 11.3106,6.3501 C11.5496,6.5001 11.8506,6.5001 12.1006,6.3501 C12.3396,6.2101 12.4896,5.9401 12.4806,5.6701 L12.4806,5.4701 L13.9196,5.4701 L15.0106,17.6401 C14.9096,18.4791 14.1596,19.0601 13.3396,19.0001 L13.3396,19.0001 Z M8.2796,1.5501 C9.6406,1.5601 10.7706,2.5901 10.9096,3.9201 L5.6506,3.9201 C5.7896,2.5901 6.9206,1.5601 8.2796,1.5501 L8.2796,1.5501 Z M15.4006,4.6201 C15.3696,4.2201 15.0296,3.9201 14.6406,3.9201 L12.4706,3.9201 C12.3296,1.7301 10.4996,0.0001 8.2796,0.0001 C6.0606,0.0001 4.2306,1.7301 4.0896,3.9201 L1.9296,3.9201 C1.5296,3.9201 1.1906,4.2201 1.1596,4.6201 L-0.0004,17.5901 L-0.0004,17.6801 C0.1106,19.3001 1.4806,20.5601 3.0696,20.5601 C3.1306,20.5601 3.1906,20.5601 3.2396,20.5501 L13.2996,20.5501 C14.9996,20.6501 16.4496,19.3601 16.5606,17.6601 L16.5606,17.6001 L15.4006,4.6201 Z" id="Fill-1" fill="#000000" mask="url(#mask-2)"></path>
        </g>
    </g>
</svg>