<?xml version="1.0" encoding="UTF-8"?>
<svg width="16px" height="20px" viewBox="0 0 16 20" version="1.1" xmlns="http://www.w3.org/2000/svg" xmlns:xlink="http://www.w3.org/1999/xlink">
    <title>basket</title>
    <defs>
        <polygon id="path-1" points="0 0 15.18 0 15.18 18.846575 0 18.846575"></polygon>
    </defs>
    <g id="Page-1" stroke="none" stroke-width="1" fill="none" fill-rule="evenodd">
        <g id="my-cart-copy-3" transform="translate(-1168.000000, -358.000000)">
            <g id="Group-2-Copy-3" transform="translate(1165.000000, 357.000000)">
                <g id="Group-3" transform="translate(3.208333, 1.375092)">
                    <mask id="mask-2" fill="white">
                        <use xlink:href="#path-1"></use>
                    </mask>
                    <g id="Clip-2"></g>
                    <path d="M12.2279667,17.4166667 L12.2096333,17.6366667 L12.2096333,17.4166667 L2.9513,17.4166667 C2.18221667,17.4716667 1.51305,16.9308333 1.42046667,16.225 L2.41963333,5.01416667 L3.73963333,5.01416667 L3.73963333,5.18833333 C3.73046667,5.445 3.86796667,5.68333333 4.08888333,5.82083333 C4.30796667,5.94916667 4.59213333,5.95833333 4.81213333,5.82083333 C5.0413,5.68333333 5.16963333,5.445 5.16138333,5.1975 L5.16138333,5.01416667 L10.0197167,5.01416667 L10.0197167,5.18833333 C10.0096333,5.445 10.1388833,5.6925 10.36805,5.82083333 C10.5871333,5.95833333 10.86305,5.95833333 11.0922167,5.82083333 C11.3113,5.6925 11.4488,5.445 11.44055,5.1975 L11.44055,5.01416667 L12.7596333,5.01416667 L13.7597167,16.17 C13.6671333,16.9390833 12.9796333,17.4716667 12.2279667,17.4166667 L12.2279667,17.4166667 Z M7.58963333,1.42083333 C8.83721667,1.43 9.87305,2.37416667 10.0004667,3.59333333 L5.17971667,3.59333333 C5.30713333,2.37416667 6.34388333,1.43 7.58963333,1.42083333 L7.58963333,1.42083333 Z M14.1172167,4.235 C14.0888,3.86833333 13.7771333,3.59333333 13.42055,3.59333333 L11.4313833,3.59333333 C11.3021333,1.58583333 9.62463333,0 7.58963333,0 C5.55555,0 3.87805,1.58583333 3.7488,3.59333333 L1.7688,3.59333333 C1.40213333,3.59333333 1.09138333,3.86833333 1.06296667,4.235 L-0.000366666667,16.1241667 L-0.000366666667,16.2066667 C0.101383333,17.6916667 1.35721667,18.8466667 2.8138,18.8466667 C2.86971667,18.8466667 2.92471667,18.8466667 2.96963333,18.8375 L12.1913,18.8375 C13.7496333,18.9291667 15.0788,17.7466667 15.18055,16.1883333 L15.18055,16.1333333 L14.1172167,4.235 Z" id="Fill-1" fill="#FFFFFF" mask="url(#mask-2)"></path>
                </g>
            </g>
        </g>
    </g>
</svg>