<?xml version="1.0" encoding="UTF-8"?>
<svg width="24px" height="24px" viewBox="0 0 24 24" version="1.1" xmlns="http://www.w3.org/2000/svg" xmlns:xlink="http://www.w3.org/1999/xlink">
    <title>basket</title>
    <g id="basket" stroke="none" stroke-width="1" fill="none" fill-rule="evenodd">
        <path d="M20,19.3316849 L18.8471827,6.36556564 C18.8254828,6.10813303 18.6082603,5.91115107 18.3494693,5.91422865 L15.9209595,5.91422865 C15.9209595,3.75245986 14.1653316,2 11.9996548,2 C9.83397807,2 8.07835016,3.75245986 8.07835016,5.91422865 L5.64984037,5.91422865 C5.3921896,5.91412369 5.17668211,6.10955044 5.15212702,6.36556564 L4,19.3316849 L4,19.3771632 C4.10205323,20.9131549 5.42372194,22.0809346 6.96349987,21.9956068 L17.0358098,21.9956068 C18.5755878,22.0809346 19.8972565,20.9131549 19.9993097,19.3771632 L20,19.3316849 Z M12,2.99604217 C13.6136614,2.99869124 14.9216648,4.30279434 14.9262231,5.91353959 L9.07377686,5.91353959 C9.07833519,4.30279434 10.3863386,2.99869124 12,2.99604217 L12,2.99604217 Z M17.0392614,20.9992201 L6.96349987,20.9992201 C5.98093639,21.0813958 5.11003127,20.3711759 4.99473639,19.3937007 L6.10544482,6.90717003 L8.07835016,6.90717003 L8.07835016,7.38538052 C8.07156443,7.56716385 8.16485019,7.73811383 8.32152986,7.8310173 C8.47820953,7.92392077 8.67322718,7.92392077 8.82990685,7.8310173 C8.98658652,7.73811383 9.07987228,7.56716385 9.07308655,7.38538052 L9.07308655,6.90717003 L14.9255328,6.90717003 L14.9255328,7.38538052 C14.9187471,7.56716385 15.0120329,7.73811383 15.1687125,7.8310173 C15.3253922,7.92392077 15.5204099,7.92392077 15.6770895,7.8310173 C15.8337692,7.73811383 15.927055,7.56716385 15.9202692,7.38538052 L15.9202692,6.90717003 L17.8931746,6.90717003 L19.003883,19.3978351 C18.8865486,20.3733594 18.0166881,21.0811489 17.0358098,20.9992201 L17.0392614,20.9992201 Z" stroke="#000000" stroke-width="0.555555556" fill="#000000" fill-rule="nonzero"></path>
    </g>
</svg>