<?xml version="1.0" encoding="UTF-8"?>
<svg width="14px" height="16px" viewBox="0 0 14 16" version="1.1" xmlns="http://www.w3.org/2000/svg" xmlns:xlink="http://www.w3.org/1999/xlink">
    <title>basket</title>
    <g id="Page-1" stroke="none" stroke-width="1" fill="none" fill-rule="evenodd">
        <g id="new-copy-2" transform="translate(-244.000000, -1772.000000)" fill="#000000" fill-rule="nonzero" stroke="#000000" stroke-width="0.555555556">
            <g id="Group-4" transform="translate(100.000000, 1425.000000)">
                <g id="Group-10" transform="translate(0.000000, 334.000000)">
                    <g id="basket" transform="translate(142.000000, 12.000000)">
                        <path d="M15,14.4987637 L14.135387,4.77417423 C14.1191121,4.58109978 13.9561952,4.4333633 13.762102,4.43567149 L11.9407196,4.43567149 C11.9407196,2.8143449 10.6239987,1.5 8.99974113,1.5 C7.37548355,1.5 6.05876262,2.8143449 6.05876262,4.43567149 L4.23738027,4.43567149 C4.0441422,4.43559277 3.88251158,4.58216283 3.86409526,4.77417423 L3,14.4987637 L3,14.5328724 C3.07653993,15.6848662 4.06779145,16.5607009 5.2226249,16.4967051 L12.7768574,16.4967051 C13.9316908,16.5607009 14.9229423,15.6848662 14.9994823,14.5328724 L15,14.4987637 Z M9,2.24703162 C10.210246,2.24901843 11.1912486,3.22709575 11.1946674,4.43515469 L6.80533264,4.43515469 C6.8087514,3.22709575 7.78975397,2.24901843 9,2.24703162 L9,2.24703162 Z M12.779446,15.749415 L5.2226249,15.749415 C4.48570229,15.8110469 3.83252345,15.2783819 3.74605229,14.5452755 L4.57908361,5.18037752 L6.05876262,5.18037752 L6.05876262,5.53903539 C6.05367332,5.67537288 6.12363764,5.80358537 6.24114739,5.87326297 C6.35865714,5.94294057 6.50492039,5.94294057 6.62243014,5.87326297 C6.73993989,5.80358537 6.80990421,5.67537288 6.80481491,5.53903539 L6.80481491,5.18037752 L11.1941496,5.18037752 L11.1941496,5.53903539 C11.1890603,5.67537288 11.2590246,5.80358537 11.3765344,5.87326297 C11.4940441,5.94294057 11.6403074,5.94294057 11.7578171,5.87326297 C11.8753269,5.80358537 11.9452912,5.67537288 11.9402019,5.53903539 L11.9402019,5.18037752 L13.4198809,5.18037752 L14.2529122,14.5483763 C14.1649114,15.2800195 13.5125161,15.8108617 12.7768574,15.749415 L12.779446,15.749415 Z"></path>
                    </g>
                </g>
            </g>
        </g>
    </g>
</svg>