<?xml version="1.0" encoding="UTF-8"?>
<svg width="20px" height="20px" viewBox="0 0 20 20" version="1.1" xmlns="http://www.w3.org/2000/svg" xmlns:xlink="http://www.w3.org/1999/xlink">
    <title>Group</title>
    <g id="Page-1" stroke="none" stroke-width="1" fill="none" fill-rule="evenodd">
        <g id="sign-in" transform="translate(-617.000000, -714.000000)" fill-rule="nonzero">
            <g id="Group" transform="translate(617.000000, 714.000000)">
                <path d="M2.08332031,0 L17.9166406,0 C19.0672656,0 20,0.932734375 20,2.08332031 L20,17.9166406 C20,19.0672656 19.0672656,20 17.9166797,20 L2.08332031,20 C0.932734375,20 0,19.0672656 0,17.9166797 L0,2.08332031 C0,0.932734375 0.932734375,0 2.08332031,0 Z" id="Path" fill="#39579B"></path>
                <path d="M15.4166797,5.83332031 L17.0833594,5.83332031 C17.3134766,5.83332031 17.5000391,5.64675781 17.5000391,5.41664063 L17.5000391,2.91664062 C17.5000391,2.6865625 17.3134375,2.5 17.0833203,2.5 L15.4166406,2.5 C12.8853516,2.5 10.8333203,4.55203125 10.8333203,7.08332031 L10.8333203,9.16664062 L8.75,9.16664062 C8.51988281,9.16664062 8.33332031,9.35320313 8.33332031,9.58332031 L8.33332031,12.0833203 C8.33332031,12.3134375 8.51988281,12.5 8.75,12.5 L10.8333203,12.5 L10.8333203,20 L14.1666406,20 L14.1666406,12.5 L16.25,12.5 C16.4292578,12.4998828 16.5883594,12.3850781 16.645,12.215 L17.4783203,9.715 C17.5510547,9.49667969 17.4330078,9.26074219 17.2146875,9.18800781 C17.1723437,9.17390625 17.1279687,9.16667969 17.0833203,9.16664063 L14.1666406,9.16664063 L14.1666406,7.08332031 C14.1666797,6.39296875 14.7263281,5.83332031 15.4166797,5.83332031 Z" id="Path" fill="#FAFAFA"></path>
            </g>
        </g>
    </g>
</svg>