<?xml version="1.0" encoding="UTF-8"?>
<svg width="20px" height="20px" viewBox="0 0 20 20" version="1.1" xmlns="http://www.w3.org/2000/svg" xmlns:xlink="http://www.w3.org/1999/xlink">
    <title>Group 2</title>
    <g id="Page-1" stroke="none" stroke-width="1" fill="none" fill-rule="evenodd">
        <g id="sign-in" transform="translate(-628.000000, -652.000000)" fill-rule="nonzero">
            <g id="Group-19" transform="translate(628.000000, 652.000000)">
                <g id="facebook-(1)" transform="translate(0.000000, 0.000000)">
                    <path d="M4.24618559,11.5784242 L3.57926464,14.0681326 L1.14168393,14.1196991 C0.413205087,12.7685312 0,11.2226232 0,9.57983176 C0,7.99126365 0.386336653,6.49321745 1.07114494,5.17415695 L1.07166884,5.17415695 L3.2418001,5.57201934 L4.19244872,7.72912802 C3.9934801,8.30919431 3.88503341,8.93188338 3.88503341,9.57983176 C3.88510826,10.2830513 4.01249008,10.9568203 4.24618559,11.5784242 Z" id="Path" fill="#FBBB00"></path>
                    <path d="M18.9922784,7.79019944 C19.1022968,8.36970442 19.1596635,8.96818196 19.1596635,9.57983176 C19.1596635,10.2656878 19.0875528,10.9347044 18.9501796,11.5800333 C18.4838363,13.7760226 17.2652892,15.6935606 15.5772555,17.0505289 L15.5767316,17.050005 L12.8433362,16.9105361 L12.4564756,14.4955578 C13.5765675,13.8386657 14.4519246,12.8106674 14.9130289,11.5800333 L9.79043838,11.5800333 L9.79043838,7.79019944 L14.9877591,7.79019944 L18.9922784,7.79019944 L18.9922784,7.79019944 Z" id="Path" fill="#518EF8"></path>
                    <path d="M15.5766942,17.050005 L15.5772181,17.0505289 C13.9355118,18.3701133 11.8500274,19.1596635 9.57983176,19.1596635 C5.93159982,19.1596635 2.75973997,17.1205439 1.14168393,14.1197365 L4.24618559,11.5784616 C5.0551949,13.737591 7.13802246,15.2745927 9.57983176,15.2745927 C10.6293847,15.2745927 11.6126646,14.990865 12.4564008,14.4955578 L15.5766942,17.050005 Z" id="Path" fill="#28B446"></path>
                    <path d="M15.6946084,2.20545689 L12.5911546,4.7462079 C11.7179305,4.20038202 10.6857036,3.88507084 9.57983176,3.88507084 C7.08275132,3.88507084 4.96096827,5.49257409 4.19248614,7.72912802 L1.07166884,5.17415695 L1.07114494,5.17415695 C2.66551335,2.10019101 5.87737647,0 9.57983176,0 C11.9042507,0 14.0355013,0.827981866 15.6946084,2.20545689 Z" id="Path" fill="#F14336"></path>
                </g>
            </g>
        </g>
    </g>
</svg>