<?xml version="1.0" encoding="UTF-8"?>
<svg width="16px" height="14px" viewBox="0 0 16 14" version="1.1" xmlns="http://www.w3.org/2000/svg" xmlns:xlink="http://www.w3.org/1999/xlink">
    <title>Path_196</title>
    <g id="Page-1" stroke="none" stroke-width="1" fill="none" fill-rule="evenodd">
        <g id="new-copy-2" transform="translate(-121.000000, -1773.000000)" fill="#000000" fill-rule="nonzero" stroke="#000000" stroke-width="0.3">
            <g id="Group-4" transform="translate(100.000000, 1425.000000)">
                <g id="Group-10" transform="translate(0.000000, 334.000000)">
                    <g id="Path_196" transform="translate(20.000000, 12.000000)">
                        <path d="M15.2164682,3.71215 C14.980085,3.39279715 14.6796876,3.12643492 14.3345318,2.93013731 C13.6658536,2.47476725 12.8728912,2.23774227 12.0644019,2.25157111 C10.9022404,2.26449613 9.79650536,2.75543167 9.00652295,3.60923949 C8.55326103,3.13720086 8.01127865,2.75958809 7.41175935,2.49812755 C6.94415224,2.32343 6.44759233,2.23957045 5.94864403,2.25103512 C4.74755468,2.26932216 3.60718317,2.78300077 2.79657772,3.6708786 C1.92857134,4.64109089 1.46522854,5.90782746 1.5020364,7.21003544 L1.5020364,7.39709674 C1.5020364,9.00185754 2.38397278,10.5058518 3.58432672,11.8206408 C5.16483793,13.3965418 6.98147823,14.7154436 8.9685269,15.7296323 L9.00598779,15.75 L9.04344868,15.7296323 C9.26874918,15.5854504 12.9083422,13.7748685 15.0280934,11.2031777 C15.9249364,10.1728831 16.4414306,8.86543822 16.4912087,7.49947126 L16.4912087,7.35421736 C16.5704679,6.01819805 16.111256,4.70618147 15.2164682,3.71215 Z M15.5541513,7.33331366 L15.5541513,7.33331366 L15.5541513,7.49786328 C15.5086985,8.61003594 15.0773907,9.67151034 14.3345318,10.4994199 C12.8186177,12.1682756 11.0134898,13.5483902 9.00652295,14.572961 C7.25033463,13.664686 5.64848153,12.4841654 4.2602282,11.0750756 C3.05969588,9.75832127 2.45942971,8.52375245 2.45942971,7.37136911 L2.45942971,7.18645178 C2.41958768,6.16034322 2.77564641,5.15825011 3.45374876,4.38803623 C4.09855982,3.68840731 4.9988228,3.28020951 5.94917918,3.25655659 C6.32531798,3.23749594 6.70149197,3.29342726 7.0558809,3.42110621 C7.53891107,3.63457477 7.97835183,3.93568615 8.35202769,4.30924537 L9.00866357,5.02961896 L9.6840299,4.33014907 C10.3032309,3.65733881 11.1717409,3.26961077 12.0852729,3.25816456 C12.7120956,3.24878442 13.3273032,3.4280337 13.8512863,3.77271713 L13.9449385,3.83435624 C14.1425714,3.94853553 14.320114,4.09448572 14.4704613,4.26636599 L14.5079222,4.3280051 L14.5641135,4.38964421 C15.2505881,5.21164913 15.6052649,6.26109186 15.5584326,7.33170568 L15.5541513,7.33331366 Z"></path>
                    </g>
                </g>
            </g>
        </g>
    </g>
</svg>