<?xml version="1.0" encoding="UTF-8"?>
<svg width="24px" height="24px" viewBox="0 0 24 24" version="1.1" xmlns="http://www.w3.org/2000/svg" xmlns:xlink="http://www.w3.org/1999/xlink">
    <title>ic_close_red</title>
    <g id="ic_close_red" stroke="none" stroke-width="1" fill="none" fill-rule="evenodd">
        <path d="M7.12122606,5.70720106 L11.7168073,10.304008 L11.7168073,10.304008 L16.3137085,5.70710678 C16.7042328,5.31658249 17.3373978,5.31658249 17.7279221,5.70710678 C18.1184464,6.09763107 18.1184464,6.73079605 17.7279221,7.12132034 L13.131728,11.7175144 L13.131728,11.7175144 L17.7279221,16.3137085 C18.1184464,16.7042328 18.1184464,17.3373978 17.7279221,17.7279221 C17.3373978,18.1184464 16.7042328,18.1184464 16.3137085,17.7279221 L11.7175144,13.131728 L11.7175144,13.131728 L7.12132034,17.7279221 C6.73079605,18.1184464 6.09763107,18.1184464 5.70710678,17.7279221 C5.31658249,17.3373978 5.31658249,16.7042328 5.70710678,16.3137085 L10.3025938,11.7182215 L10.3025938,11.7182215 L5.70701249,7.12141462 C5.31652503,6.73082301 5.31656724,6.09764632 5.70710678,5.70710678 C6.09757901,5.31663456 6.73065957,5.31663456 7.12113179,5.70710678 C7.12116322,5.7071382 7.12119464,5.70716963 7.12122606,5.70720106 Z" id="Path" fill="#FF2A2A"></path>
    </g>
</svg>