<?xml version="1.0" encoding="UTF-8"?>
<svg width="20px" height="18px" viewBox="0 0 20 18" version="1.1" xmlns="http://www.w3.org/2000/svg" xmlns:xlink="http://www.w3.org/1999/xlink">
    <title>ic_heartfill</title>
    <g id="Page-1" stroke="none" stroke-width="1" fill="none" fill-rule="evenodd">
        <g id="my-cart-copy-3" transform="translate(-1294.000000, -264.000000)" fill="#FF3939" fill-rule="nonzero" stroke="#FF3939" stroke-width="0.5">
            <g id="ic_heartfill" transform="translate(1290.000000, 258.000000)">
                <path d="M18.4638698,6.25 C19.8881686,6.2521875 21.2460436,6.84828125 22.2162655,7.895 C24.2612448,10.1098437 24.2612448,13.5332812 22.2162655,15.748125 L22.2162655,15.748125 L14.8628332,23.5410937 L14.8377882,23.56625 C14.7082075,23.68875 14.5416037,23.75 14.3760889,23.75 C14.198596,23.75 14.022192,23.68 13.8904335,23.5410937 L13.8904335,23.5410937 L6.53373454,15.748125 C4.48875515,13.5321875 4.48875515,10.1098437 6.53373454,7.895 C6.61866979,7.80203125 6.70796069,7.7134375 6.79942941,7.628125 C7.78707388,6.70609375 9.0393243,6.25 10.288308,6.25 C11.6636056,6.25 13.0356365,6.8034375 14.0450592,7.895 L14.0450592,7.895 L14.3760889,8.24609375 L14.7082075,7.895 C15.6784293,6.8471875 17.0395711,6.2521875 18.4638698,6.25 Z" id="Combined-Shape"></path>
            </g>
        </g>
    </g>
</svg>