<?xml version="1.0" encoding="UTF-8"?>
<svg width="19px" height="18px" viewBox="0 0 19 18" version="1.1" xmlns="http://www.w3.org/2000/svg" xmlns:xlink="http://www.w3.org/1999/xlink">
    <title>ic_heart copy</title>
    <g id="Page-1" stroke="none" stroke-width="1" fill="none" fill-rule="evenodd">
        <g id="my-cart-copy-2" transform="translate(-133.000000, -338.000000)" fill="#333939">
            <g id="Group" transform="translate(130.000000, 335.000000)">
                <g id="Group-3" transform="translate(3.000000, 3.000000)">
                    <path d="M3.2573,3.26 C3.2973,3.2 3.3573,3.15 3.4073,3.1 C3.9673,2.59 4.6873,2.3 5.4473,2.3 C6.2973,2.3 7.0773,2.64 7.6673,3.27 L8.7573,4.43 C8.9273,4.61 9.1773,4.72 9.4373,4.72 C9.6973,4.72 9.9473,4.61 10.1273,4.43 L11.2273,3.26 C11.7983,2.65 12.5973,2.3 13.4273,2.3 C14.2573,2.3 15.0573,2.65 15.6173,3.26 C16.8973,4.63 16.9073,6.78 15.6373,8.15 L9.4373,14.69 L3.2573,8.17 C1.9773,6.79 1.9773,4.63 3.2573,3.26 M17.3073,1.69 C16.3073,0.62 14.8973,0 13.4273,0 C11.9573,0 10.5373,0.62 9.5473,1.69 L9.4373,1.8 L9.3373,1.69 C8.3373,0.62 6.9173,0 5.4473,0 C4.1073,0 2.8273,0.5 1.8373,1.42 C1.7473,1.51 1.6573,1.6 1.5673,1.69 C-0.5227,3.95 -0.5227,7.48 1.5673,9.73 L8.7473,17.3 C8.9273,17.49 9.1773,17.6 9.4373,17.6 C9.6873,17.6 9.9173,17.51 10.1273,17.3 L17.3073,9.73 C19.3973,7.48 19.3973,3.95 17.3073,1.69" id="Fill-1"></path>
                </g>
            </g>
        </g>
    </g>
</svg>