<?xml version="1.0" encoding="UTF-8"?>
<svg width="45px" height="57px" viewBox="0 0 45 57" version="1.1" xmlns="http://www.w3.org/2000/svg" xmlns:xlink="http://www.w3.org/1999/xlink">
    <title>Group 17</title>
    <g id="Page-1" stroke="none" stroke-width="1" fill="none" fill-rule="evenodd">
        <g id="my-cart-copy" transform="translate(-711.000000, -531.000000)" fill="#9B2043">
            <g id="Group-17" transform="translate(711.000000, 531.000000)">
                <path d="M22.4984108,32.5714286 C16.2687173,32.5714286 11.25,27.6949153 11.25,21.7142857 C11.25,15.7029863 16.2687173,10.8571429 22.4984108,10.8571429 C28.6963201,10.8571429 33.75,15.7029863 33.75,21.7142857 C33.75,27.6949153 28.6963201,32.5714286 22.4984108,32.5714286 M22.5,0 C10.1170213,0 0,9.61117021 0,21.375 C0,35.2308511 16.1489362,50.9968085 19.3755319,54.0287234 L22.5670213,57 L25.6914894,54.0014362 C32.9042553,47.0583511 45,33.593617 45,21.375 C45,9.61117021 34.9180851,0 22.5,0" id="Fill-1-Copy-3"></path>
            </g>
        </g>
    </g>
</svg>