<?xml version="1.0" encoding="UTF-8"?>
<svg width="24px" height="24px" viewBox="0 0 24 24" version="1.1" xmlns="http://www.w3.org/2000/svg" xmlns:xlink="http://www.w3.org/1999/xlink">
    <title>ic_man</title>
    <g id="ic_man" stroke="none" stroke-width="1" fill="none" fill-rule="evenodd">
        <path d="M16.5883,13.5606 C18.8973,13.5606 20.7883,15.4396 20.7883,17.7496 L20.7883,20.6006 L18.7673,20.6006 L18.7673,17.7496 C18.7673,16.5506 17.7883,15.5696 16.5883,15.5696 L8.3883,15.5696 C7.1873,15.5696 6.2083,16.5506 6.2083,17.7496 L6.2083,20.6006 L4.1873,20.6006 L4.1873,17.7496 C4.1873,15.4396 6.0783,13.5606 8.3883,13.5606 L16.5883,13.5606 Z M12.4875,3 C15.0275,3 17.0975,5.06 17.0975,7.59 C17.0975,10.12 15.0275,12.18 12.4875,12.18 C9.9485,12.18 7.8785,10.12 7.8785,7.59 C7.8785,5.06 9.9485,3 12.4875,3 Z M12.4875,5.01 C11.0575,5.01 9.8975,6.17 9.8975,7.59 C9.8975,9.01 11.0575,10.17 12.4875,10.17 C13.9085,10.17 15.0675,9.01 15.0675,7.59 C15.0675,6.17 13.9085,5.01 12.4875,5.01 Z" id="Combined-Shape" fill="#FFFFFF"></path>
    </g>
</svg>