<?xml version="1.0" encoding="UTF-8"?>
<svg width="24px" height="24px" viewBox="0 0 24 24" version="1.1" xmlns="http://www.w3.org/2000/svg" xmlns:xlink="http://www.w3.org/1999/xlink">
    <title>ic_search</title>
    <g id="ic_search" stroke="none" stroke-width="1" fill="none" fill-rule="evenodd">
        <path d="M11.1301,17.6705 C7.5301,17.6705 4.6001,14.7395 4.6001,11.1295 C4.6001,7.5295 7.5301,4.6005 11.1301,4.6005 C14.7401,4.6005 17.6701,7.5295 17.6701,11.1295 C17.6701,14.7395 14.7401,17.6705 11.1301,17.6705 L11.1301,17.6705 Z M17.5691,16.4405 L17.4201,16.2895 C18.5801,14.8905 19.2701,13.0905 19.2701,11.1295 C19.2701,6.6495 15.6201,3.0005 11.1301,3.0005 C6.6501,3.0005 3.0001,6.6495 3.0001,11.1295 C3.0001,15.6195 6.6501,19.2705 11.1301,19.2705 C13.0901,19.2705 14.8801,18.5795 16.2801,17.4305 L16.4401,17.5695 L20.6301,21.4305 L21.7101,20.2495 L17.5691,16.4405 Z" id="Fill-1" fill="#333333"></path>
    </g>
</svg>