<?xml version="1.0" encoding="UTF-8"?>
<svg width="18px" height="18px" viewBox="0 0 18 18" version="1.1" xmlns="http://www.w3.org/2000/svg" xmlns:xlink="http://www.w3.org/1999/xlink">
    <title>ic_user_color</title>
    <g id="Page-1" stroke="none" stroke-width="1" fill="none" fill-rule="evenodd">
        <g id="my-cart-copy-2" transform="translate(-133.000000, -282.000000)" fill="#FFFFFF">
            <g id="ic_user_color" transform="translate(130.000000, 279.000000)">
                <path d="M16.095583,13.5609527 C18.5299216,13.5609527 20.5,15.524314 20.5,17.9503527 L20.5,21 L18.0777725,21 L18.0777725,17.9503527 C18.0777725,16.8600435 17.1896224,15.9749215 16.095583,15.9749215 L7.904417,15.9749215 C6.81037758,15.9749215 5.9222275,16.8600435 5.9222275,17.9503527 L5.9222275,21 L3.5,21 L3.5,17.9503527 C3.5,15.524314 5.47007837,13.5609527 7.904417,13.5609527 L16.095583,13.5609527 Z M11.9979411,3 C14.6543173,3 16.8060627,5.14440898 16.8060627,7.79172813 C16.8060627,10.435024 14.6543173,12.579433 11.9979411,12.579433 C9.34156495,12.579433 7.18981952,10.435024 7.18981952,7.79172813 C7.18981952,5.14440898 9.34156495,3 11.9979411,3 Z M11.9979411,5.41396883 C10.6818642,5.41396883 9.61204702,6.4801384 9.61204702,7.79172813 C9.61204702,9.09929458 10.6818642,10.1654642 11.9979411,10.1654642 C13.314018,10.1654642 14.3838352,9.09929458 14.3838352,7.79172813 C14.3838352,6.4801384 13.314018,5.41396883 11.9979411,5.41396883 Z" id="Combined-Shape"></path>
            </g>
        </g>
    </g>
</svg>