<?xml version="1.0" encoding="UTF-8"?>
<svg width="16px" height="15px" viewBox="0 0 16 15" version="1.1" xmlns="http://www.w3.org/2000/svg" xmlns:xlink="http://www.w3.org/1999/xlink">
    <title>Path_7</title>
    <g id="Page-1" stroke="none" stroke-width="1" fill="none" fill-rule="evenodd">
        <g id="new-copy-2" transform="translate(-1283.000000, -3381.000000)" fill="#081420" fill-rule="nonzero">
            <g id="Group-36" transform="translate(0.500000, 3321.551724)">
                <path d="M1298.0944,68.2864 L1298.0944,73.7496 L1294.904,73.7496 L1294.904,68.6456 C1294.904,67.3656 1294.4656,66.492 1293.3088,66.492 C1292.57688,66.502103 1291.9268,66.9619951 1291.6736,67.6488 C1291.58872,67.8921518 1291.54808,68.1487299 1291.5536,68.4064 L1291.5536,73.7496 L1288.364,73.7496 C1288.364,73.7496 1288.404,65.0968 1288.364,64.2192 L1291.5544,64.2192 L1291.5544,65.5752 C1291.55462,65.5858746 1291.55048,65.5961772 1291.54293,65.6037269 C1291.53538,65.6112766 1291.52507,65.6154202 1291.5144,65.6152 L1291.5544,65.6152 L1291.5544,65.5752 C1292.14244,64.5530198 1293.24705,63.939312 1294.4256,63.98 C1296.4992,63.98 1298.0944,65.376 1298.0944,68.2864 L1298.0944,68.2864 Z M1285.0944,59.6336 C1284.63564,59.5963031 1284.18199,59.7511564 1283.84178,60.0611781 C1283.50158,60.3711998 1283.30536,60.8085565 1283.3,61.2688 C1283.29587,61.7248738 1283.48353,62.1617039 1283.81717,62.4726764 C1284.15081,62.7836489 1284.59974,62.9401559 1285.0544,62.904 L1285.0944,62.904 C1285.55471,62.9480295 1286.01218,62.7954992 1286.35396,62.4840419 C1286.69574,62.1725846 1286.89,61.7312045 1286.88881,61.2688 C1286.87765,60.8105162 1286.67971,60.3766928 1286.34087,60.0679207 C1286.00204,59.7591486 1285.55175,59.6022482 1285.0944,59.6336 L1285.0944,59.6336 Z M1283.46,73.7496 L1286.6104,73.7496 L1286.6104,64.2192 L1283.46,64.2192 L1283.46,73.7496 Z" id="Path_7"></path>
            </g>
        </g>
    </g>
</svg>