<svg width="24" height="24" viewBox="0 0 24 24" fill="none" xmlns="http://www.w3.org/2000/svg">
<path d="M12.4146 15.7583C14.6229 15.7583 16.4146 13.9667 16.4146 11.7583C16.4146 9.55833 14.6229 7.75833 12.4146 7.75833C10.2146 7.75833 8.41458 9.55833 8.41458 11.7583C8.41458 13.9667 10.2146 15.7583 12.4146 15.7583ZM20.6979 11.2583C20.8813 11.6 20.8813 12.0167 20.6979 12.35C19.0146 15.3917 16.0729 17.525 12.3812 17.525C8.85625 17.525 5.92292 15.3242 4.15625 12.3083C3.94792 11.95 3.94792 11.5 4.15625 11.1417C5.92292 8.15833 8.83958 6 12.3396 6C16.0646 6 19.0313 8.175 20.6979 11.2583ZM15.2478 11.7585C15.2478 13.3252 13.9812 14.591 12.4145 14.591C10.8562 14.591 9.58117 13.3252 9.58117 11.7585C9.58117 10.2002 10.8562 8.92517 12.4145 8.92517C13.9812 8.92517 15.2478 10.2002 15.2478 11.7585Z" fill="#9CA3AD"/>
</svg>
