<?xml version="1.0" encoding="UTF-8"?>
<svg width="168px" height="19px" viewBox="0 0 168 19" version="1.1" xmlns="http://www.w3.org/2000/svg" xmlns:xlink="http://www.w3.org/1999/xlink">
    <title>Group 35</title>
    <g id="Page-1" stroke="none" stroke-width="1" fill="none" fill-rule="evenodd">
        <g id="new-copy-2" transform="translate(-1166.000000, -3612.000000)">
            <g id="Group-9" transform="translate(0.500000, 3321.551724)">
                <g id="Group-35" transform="translate(1165.500000, 291.000000)">
                    <g id="4steps_logoAsset-4-Copy" transform="translate(104.000000, 0.000000)" fill-rule="nonzero">
                        <path d="M14.3328904,2.14678899 L14.3574751,2.14678899 C14.4640089,2.07247706 14.8573643,1.90733945 16.021041,1.90733945 L22.7408638,1.90733945 L22.7408638,0.214561714 L15.4719823,0.214561714 C14.645782,0.208661124 13.8342341,0.434525278 13.1282392,0.866972477 L13.1036545,0.891743119 L13.0708749,0.908256881 C12.013732,1.7587156 11.4810631,2.8733945 11.4810631,4.20275229 L11.4810631,4.35963303 C11.4810631,5.23486239 11.7924695,6.10183486 12.4070875,6.91926606 L12.4234773,6.93577982 L12.448062,6.96055046 C13.2101883,7.76146789 14.0214839,8.16605505 14.8573643,8.16605505 L18.9220377,8.16605505 L19.4219269,8.24036697 C19.9791805,8.43853211 20.3643411,8.71926606 20.6019934,9.10733945 C20.9297896,9.75137615 20.9953488,10.1559633 20.9953488,10.3706422 C20.9953488,11.4605505 20.5937984,12.1954128 19.7497231,12.6 L19.7169435,12.6 C19.6431894,12.6412844 19.3153931,12.7816514 18.0697674,12.7816514 L11.4155039,12.7816514 L11.4155039,14.4412844 L19.1105205,14.4412844 C19.5776301,14.4412844 20.0857143,14.3009174 20.6757475,14.0201835 L20.7003322,14.0201835 L20.716722,14.0036697 C21.3355585,13.6498414 21.850206,13.137 22.2081949,12.5174312 C22.5475523,11.8838561 22.7196831,11.173067 22.7080842,10.453211 C22.7080842,9.16513761 22.2409745,8.08348624 21.3149502,7.2412844 L21.2903654,7.22477064 L21.2657807,7.2 C20.544629,6.70458716 19.938206,6.46513761 19.4219269,6.46513761 L15.2261351,6.46513761 C14.9508535,6.45175891 14.6795857,6.39319051 14.4230343,6.29174312 C13.5871539,5.81284404 13.1856035,5.13577982 13.1856035,4.22752294 C13.1856035,3.31926606 13.5625692,2.57614679 14.3328904,2.14678899 Z" id="Path" fill="#115465"></path>
                        <path d="M9.87486157,9.96605505 L9.87486157,1.26330275 C9.87424655,0.790239112 9.58153414,0.367520728 9.14109451,0.203638674 C8.70065487,0.0397566187 8.20551657,0.169325649 7.89988926,0.528440367 L0.335991141,9.43761468 C-0.166113793,10.0305232 -0.0964203124,10.9212154 0.491694352,11.4275229 C0.745987138,11.6445878 1.06805005,11.7644477 1.4013289,11.766055 L8.08837209,11.766055 L8.08837209,14.5321101 L9.87486157,14.5321101 L9.87486157,11.766055 L11.841639,11.766055 L11.841639,9.96605505 L9.87486157,9.96605505 Z M8.08837209,3.09633028 L8.08837209,9.94954128 L2.29457364,9.94954128 L8.08837209,3.09633028 Z" id="Shape" fill="#115465"></path>
                        <path d="M25.4124031,3.75688073 L29.8950166,3.75688073 L29.8950166,4.51651376 L25.4124031,4.51651376 L25.4124031,8.76880734 C25.420598,9.37155963 25.5763012,10.040367 25.8713178,10.7834862 C26.0434109,11.2293578 26.5105205,11.8155963 27.2808416,12.5256881 C28.2232558,13.1201835 29.16567,13.4174312 30.0916944,13.4174312 L30.1900332,13.4174312 L30.1900332,14.1770642 L30.1572536,14.1770642 C28.5455888,14.1770642 27.1715762,13.5963303 26.0352159,12.4348624 C25.1173865,11.3504587 24.6584718,10.0183486 24.6584718,8.43853211 L24.6584718,0 L25.4124031,0 L25.4124031,3.75688073 Z" id="Path" fill="#2C2F2E"></path>
                        <path d="M36.2460687,3.82293578 C37.7539313,3.82293578 39.0514581,4.3293578 40.1386489,5.34220183 L40.6631229,6.00275229 C41.2252137,6.86272475 41.5217875,7.87123106 41.5154944,8.90091743 L41.5154944,9.13211009 L31.9929125,9.13211009 L31.9929125,9.29724771 C31.9929125,10.1807339 32.3043189,11.0477064 32.9435216,11.906422 C33.6482835,12.5917431 34.2792913,13.0045872 34.8365449,13.153211 C35.2901257,13.3137149 35.7655461,13.4028341 36.2460687,13.4174312 C38.1527501,13.4174312 39.5267626,12.5944954 40.3681063,10.9486239 C40.5126132,10.6111017 40.6118256,10.2556787 40.6631229,9.89174312 L41.4498339,9.89174312 L41.4498339,9.95779817 C41.4498339,10.4614679 41.1875969,11.1798165 40.6631229,12.1045872 C40.0518473,12.9021558 39.2356826,13.5160532 38.30299,13.8798165 C37.606423,14.0779817 37.0491694,14.1770642 36.6394241,14.1770642 L36.1149502,14.1770642 C35.1315615,14.1770642 34.1481728,13.8633028 33.1647841,13.2192661 C32.3616833,12.4844037 31.8781838,11.9146789 31.7306755,11.5100917 C31.368818,10.7232041 31.1787878,9.86723227 31.1734219,9 C31.1734219,8.15779817 31.3946844,7.27431193 31.8290144,6.33302752 C32.4026578,5.35045872 33.2631229,4.64036697 34.4104097,4.18623853 C35.0105887,4.01134395 35.6248244,3.88977804 36.2460687,3.82293578 Z M32.0584718,8.37247706 L40.6959025,8.37247706 L40.6959025,8.33944954 C40.572979,7.52201835 40.3435216,6.89449541 40.0075305,6.46513761 C39.5459077,5.77944532 38.8802148,5.2590535 38.1063123,4.97889908 C37.4671096,4.74770642 36.8852713,4.62385321 36.3771872,4.61559633 C35.869103,4.60733945 35.3200443,4.73944954 34.5087486,4.97889908 C33.9842746,5.21834862 33.4598007,5.60642202 32.9435216,6.13486239 C32.3534884,6.93577982 32.0584718,7.67889908 32.0584718,8.37247706 Z" id="Shape" fill="#2C2F2E"></path>
                        <path d="M43.2445183,6.16788991 C43.9492802,5.2266055 44.5475083,4.66513761 45.0473976,4.48348624 C45.7439646,4.04587156 46.7109635,3.82293578 47.9647841,3.82293578 C48.7719862,3.87202538 49.5609307,4.08549971 50.2839424,4.45045872 C51.36567,5.04495413 52.1359911,5.97798165 52.6112957,7.25779817 C52.758804,7.6706422 52.840753,8.26513761 52.840753,9.03302752 C52.840753,10.0899083 52.6194906,10.9651376 52.1851606,11.6752294 C51.6606866,12.6880734 50.7210041,13.4449541 49.366113,13.9458716 C48.7718804,14.1180325 48.156952,14.2069407 47.5386489,14.2100917 C46.3421927,14.2100917 45.2358804,13.7972477 44.1951274,12.9550459 C43.703433,12.4844037 43.3920266,12.1211009 43.2772979,11.8733945 L43.2445183,11.8733945 L43.2445183,17.9669725 L42.4987818,17.9669725 L42.4987818,3.78990826 L43.2445183,3.78990826 L43.2445183,6.16788991 Z M43.3100775,8.86788991 L43.3100775,8.96697248 L43.2772979,9 L43.3100775,9.03302752 L43.3100775,9.16513761 C43.3100775,10.5688073 43.8891842,11.7110092 45.0473976,12.5917431 C45.8914729,13.1201835 46.7027685,13.3844037 47.5058693,13.3844037 L47.8664452,13.3844037 C48.5957918,13.3844037 49.3988926,13.1449541 50.2511628,12.6577982 C51.4694721,11.7330275 52.0813584,10.5137615 52.0868217,9 C52.0868217,8.00091743 51.7672204,7.05963303 51.1362126,6.16788991 C50.1774086,5.13577982 49.0547065,4.61559633 47.7681063,4.61559633 L47.5714286,4.61559633 C46.6208195,4.61559633 45.6620155,4.9706422 44.6868217,5.67247706 C43.7689922,6.56972477 43.3100775,7.63486239 43.3100775,8.86788991 Z" id="Shape" fill="#2C2F2E"></path>
                        <path d="M57.0611296,3.78990826 L63.3712071,3.78990826 L63.3712071,4.54954128 L56.8972315,4.54954128 C55.7663344,4.54954128 55.0451827,5.01192661 54.7337763,5.93669725 C54.6512458,6.18152737 54.607011,6.43780128 54.6026578,6.69633028 C54.6026578,7.29082569 54.8566999,7.81100917 55.3565891,8.2733945 C55.7581395,8.56238532 56.1023256,8.71926606 56.4055371,8.73577982 L60.9537099,8.73577982 C61.5112351,8.79660626 62.0371711,9.0270034 62.4615725,9.39633028 C62.9040975,9.82568807 63.1745293,10.2633028 63.2728682,10.7174312 L63.3384275,11.146789 L63.3384275,11.840367 C63.2728682,12.3770642 63.027021,12.9055046 62.592691,13.4174312 C62.2051098,13.7773053 61.7302527,14.0279211 61.2159468,14.1440367 L60.4947951,14.1770642 L53.8159468,14.1770642 L53.8159468,13.4504587 L60.330897,13.4504587 C61.5273533,13.4504587 62.2730897,12.9550459 62.5599114,11.9724771 L62.6254707,11.4440367 C62.6254707,10.6018349 62.2075305,9.98256881 61.379845,9.59449541 L60.7898117,9.46238532 L56.6349945,9.46238532 C56.0392803,9.48335469 55.4528213,9.30956229 54.9632337,8.96697248 C54.2256921,8.33944954 53.8487265,7.56330275 53.8487265,6.66330275 C53.8487265,5.76330275 54.1929125,5.05321101 54.8648948,4.38440367 C55.372979,3.98807339 56.1023256,3.78990826 57.0611296,3.78990826 Z" id="Path" fill="#2C2F2E"></path>
                    </g>
                    <text id="Developed-By-Copy" font-family="SFProText-Regular, SF Pro Text" font-size="14" font-weight="normal" fill="#767E8F">
                        <tspan x="0" y="14">Developed By</tspan>
                    </text>
                </g>
            </g>
        </g>
    </g>
</svg>