<?xml version="1.0" encoding="UTF-8"?>
<svg width="8px" height="15px" viewBox="0 0 8 15" version="1.1" xmlns="http://www.w3.org/2000/svg" xmlns:xlink="http://www.w3.org/1999/xlink">
    <title>Path_13</title>
    <g id="Page-1" stroke="none" stroke-width="1" fill="none" fill-rule="evenodd">
        <g id="new-copy-2" transform="translate(-1327.000000, -3381.000000)" fill="#A7093C" fill-rule="nonzero">
            <g id="Group-36" transform="translate(0.500000, 3321.551724)">
                <path d="M1333.3,67.0304 L1331.2336,67.0304 L1331.2336,74.4272 L1328.1512,74.4272 L1328.1512,67.0304 L1326.7008,67.0304 L1326.7008,64.42 L1328.1512,64.42 L1328.1512,62.716 C1328.08738,61.8805615 1328.39158,61.0589122 1328.98405,60.4664471 C1329.57651,59.873982 1330.39816,59.5697845 1331.2336,59.6336 L1333.5184,59.6336 L1333.5184,62.172 L1331.8864,62.172 C1331.69852,62.1665413 1331.51774,62.2439478 1331.39203,62.3836796 C1331.26631,62.5234113 1331.20838,62.7113405 1331.2336,62.8976 L1331.2336,64.4176 L1333.5536,64.4176 L1333.3,67.0304 Z" id="Path_13"></path>
            </g>
        </g>
    </g>
</svg>