<svg width="24" height="24" viewBox="0 0 24 24" fill="none" xmlns="http://www.w3.org/2000/svg">
<path fill-rule="evenodd" clip-rule="evenodd" d="M20.6977 11.5835C20.0477 12.7668 19.206 13.8085 18.1977 14.6418L16.0977 12.541C16.306 12.066 16.4143 11.541 16.4143 10.991C16.4143 8.79099 14.6227 6.99099 12.4143 6.99099C11.8643 6.99099 11.3393 7.10849 10.8643 7.30766L9.34766 5.79182C10.281 5.43266 11.281 5.23349 12.3393 5.23349C16.0643 5.23349 19.031 7.40766 20.6977 10.491C20.881 10.8335 20.881 11.2502 20.6977 11.5835Z" fill="#9CA3AD"/>
<path fill-rule="evenodd" clip-rule="evenodd" d="M12.4146 14.9917C10.2146 14.9917 8.41458 13.2 8.41458 10.9908C8.41458 10.4167 8.53958 9.86667 8.76458 9.36667L9.67292 10.275C9.61458 10.4992 9.58125 10.7408 9.58125 10.9908C9.58125 12.5583 10.8562 13.825 12.4146 13.825C12.6646 13.825 12.9062 13.7917 13.1396 13.7242L14.0562 14.6325C13.5562 14.8667 12.9979 14.9917 12.4146 14.9917ZM16.9729 15.4992L15.2646 13.7917L14.4396 12.9658L10.4396 8.96667L5.47292 4L4.43125 5.04167L6.72292 7.33333C5.71458 8.16667 4.84792 9.20833 4.15625 10.375C3.94792 10.7333 3.94792 11.1833 4.15625 11.5408C5.92292 14.5575 8.85625 16.7583 12.3812 16.7583C13.5229 16.7583 14.6062 16.55 15.5896 16.175L18.4646 19.0333L19.4896 18.0167L16.9729 15.4992Z" fill="#9CA3AD"/>
<path fill-rule="evenodd" clip-rule="evenodd" d="M15.2479 10.991C15.2479 11.2085 15.2229 11.4168 15.1729 11.616L11.7896 8.23268C11.9896 8.18351 12.1979 8.15851 12.4146 8.15851C13.9812 8.15851 15.2479 9.43351 15.2479 10.991Z" fill="#9CA3AD"/>
</svg>
