<?xml version="1.0" encoding="UTF-8"?>
<svg width="16px" height="16px" viewBox="0 0 16 16" version="1.1" xmlns="http://www.w3.org/2000/svg" xmlns:xlink="http://www.w3.org/1999/xlink">
    <title>Group_888</title>
    <g id="Page-1" stroke="none" stroke-width="1" fill="none" fill-rule="evenodd">
        <g id="new-copy-2" transform="translate(-1240.000000, -3380.000000)" fill="#081420" fill-rule="nonzero">
            <g id="Group-9" transform="translate(0.500000, 3321.551724)">
                <g id="Group_888" transform="translate(1239.700800, 58.633600)">
                    <path d="M7.3616,0 C8.3456,0.0352 9.3616,0.0352 10.3496,0.0704 C11.2105016,0.0672863914 12.0577964,0.285170055 12.8104,0.7032 C13.763753,1.2617644 14.4203609,2.21430002 14.6032,3.304 C14.69671,3.98000719 14.755454,4.66036923 14.7792,5.3424 C14.8144,6.8184 14.7792,8.2952 14.7792,9.7712 C14.809283,10.5430076 14.7141855,11.3145941 14.4976,12.056 C14.0835427,13.4247075 12.9223298,14.4354446 11.5096,14.6568 C10.8356581,14.7677006 10.154177,14.8265412 9.4712,14.8328 C7.9952,14.868 6.5536,14.8328 5.0776,14.8328 C4.30583635,14.8631284 3.53425304,14.7683015 2.7928,14.552 C1.42409253,14.1379427 0.413355361,12.9767298 0.192,11.564 C0.0810962363,10.8900584 0.0222556181,10.2085771 0.016,9.5256 C-0.0192,8.0496 0.016,6.5728 0.016,5.0968 C-0.0143425551,4.32503576 0.0804846637,3.55345019 0.2968,2.812 C0.710857282,1.44329253 1.87207024,0.432555361 3.2848,0.2112 C3.95874234,0.100302526 4.6402232,0.0414619497 5.3232,0.0352 C5.9912,0 6.6592,0 7.3616,0 L7.3616,0 Z M13.4416,7.28 L13.4416,7.28 C13.4064,6.6824 13.4064,6.12 13.4064,5.52 C13.4062463,4.95595355 13.3709781,4.39246371 13.3008,3.8328 C13.2416159,2.6485065 12.3625852,1.66676664 11.192,1.4776 C10.542605,1.36080868 9.88260599,1.31360843 9.2232,1.3368 C7.9576,1.3016 6.7272,1.3016 5.4632,1.3368 C4.83923392,1.32987897 4.21583994,1.37698818 3.6,1.4776 C2.58881978,1.59584603 1.75262055,2.32006562 1.4912,3.304 C1.39847535,3.64892673 1.33953099,4.00205703 1.3152,4.3584 C1.28,5.6944 1.28,7.0296 1.28,8.3656 C1.28,9.2088 1.3152,10.088 1.3856,10.9312 C1.42340651,12.1368646 2.33277875,13.1358168 3.5296,13.2864 C4.18092392,13.3869888 4.83939042,13.4340795 5.4984,13.4272 C6.7288,13.4624 7.9592,13.4272 9.224,13.4272 C9.78804639,13.4270442 10.3515361,13.391776 10.9112,13.3216 C11.4389211,13.2945955 11.9438852,13.0982206 12.3512,12.7616 C12.9908621,12.2358246 13.3536274,11.445409 13.3352,10.6176 C13.4072,9.5608 13.4072,8.436 13.4424,7.28 L13.4416,7.28 Z" id="Path_8"></path>
                    <path d="M11.1584314,7.4168 C11.1583308,8.95539984 10.2295214,10.3417823 8.8066288,10.9271591 C7.38373614,11.5125358 5.74822332,11.1811132 4.66546471,10.0879877 C3.5827061,8.9948623 3.26688274,7.35626572 3.86579115,5.93901551 C4.46469956,4.52176529 5.85986936,3.60620843 7.3984,3.6208 C9.48429437,3.6322587 11.1668175,5.33089114 11.1584314,7.4168 L11.1584314,7.4168 Z M7.3624,9.87764765 C8.72146231,9.87764765 9.8232,8.77586231 9.8232,7.4168 C9.8232,6.05773769 8.72146231,4.956 7.3624,4.956 C6.00333769,4.956 4.9016,6.05773769 4.9016,7.4168 C4.89730831,8.07061207 5.15508191,8.6989011 5.61733165,9.16130117 C6.07958139,9.62370123 6.70778657,9.8816791 7.3616,9.87764765 L7.3624,9.87764765 Z" id="Path_9"></path>
                    <g id="Group" transform="translate(9.600000, 2.568000)">
                        <path d="M2.5792,0.88 C2.58635738,1.374454 2.19357515,1.78223337 1.6992,1.7936 C1.20403726,1.8027891 0.795163644,1.40886065 0.785916616,0.913698993 C0.776669589,0.418537333 1.17055021,0.00961763706 1.66571078,0.000312686633 C2.16087136,-0.0089922638 2.56983713,0.384840517 2.5792,0.88 L2.5792,0.88 Z" id="Path_10-2"></path>
                    </g>
                </g>
            </g>
        </g>
    </g>
</svg>