<?xml version="1.0" encoding="UTF-8"?>
<svg width="21px" height="18px" viewBox="0 0 21 18" version="1.1" xmlns="http://www.w3.org/2000/svg" xmlns:xlink="http://www.w3.org/1999/xlink">
    <title>Group 6</title>
    <g id="Page-1" stroke="none" stroke-width="1" fill="none" fill-rule="evenodd">
        <g id="my-cart-copy-2" transform="translate(-133.000000, -536.000000)" fill="#333939" stroke="#F2F3F5" stroke-width="0.2">
            <g id="Combined-Shape" transform="translate(132.000000, 533.000000)">
                <path d="M13.879957,3.6 C14.2002828,3.6 14.4900377,3.72944643 14.6997962,3.9384664 C14.9097319,4.14766288 15.0395447,4.43657856 15.0395447,4.75515262 L15.0395447,4.75515262 L15.0395447,9.09475607 L12.5784438,9.09475607 L12.5784438,6.06110097 L4.50158492,6.06110097 L4.50158492,17.938899 L12.5784438,17.938899 L12.5784438,14.9008088 L15.0395447,14.9008088 L15.0395447,19.2448474 C15.0395447,19.5634214 14.9097319,19.8523371 14.6997962,20.0615336 C14.4900377,20.2705536 14.2002828,20.4 13.879957,20.4 L13.879957,20.4 L3.20007175,20.4 C2.87974588,20.4 2.58999103,20.2705536 2.38023248,20.0615336 C2.17029679,19.8523371 2.04048396,19.5634214 2.04048396,19.2448474 L2.04048396,19.2448474 L2.04048396,4.75515262 C2.04048396,4.43657856 2.17029679,4.14766288 2.38023248,3.9384664 C2.58999103,3.72944643 2.87974588,3.6 3.20007175,3.6 L3.20007175,3.6 Z M17.7323333,7.45842668 L21.9234104,11.9998348 L17.7323681,16.5369068 L15.996137,14.8006757 L17.5641777,13.232635 L9.902485,13.232635 L9.902485,10.771534 L17.573048,10.771534 L15.996137,9.19462301 L17.7323333,7.45842668 Z"></path>
            </g>
        </g>
    </g>
</svg>