<?xml version="1.0" encoding="UTF-8"?>
<svg width="16px" height="16px" viewBox="0 0 16 16" version="1.1" xmlns="http://www.w3.org/2000/svg" xmlns:xlink="http://www.w3.org/1999/xlink">
    <title>MAN</title>
    <g id="Page-1" stroke="none" stroke-width="1" fill="none" fill-rule="evenodd">
        <g id="new-copy-2" transform="translate(-1138.000000, -41.000000)" fill="#333939" stroke="#FFFFFF" stroke-width="0.4">
            <g id="Group-18" transform="translate(100.000000, 29.000000)">
                <g id="MAN" transform="translate(1036.000000, 10.000000)">
                    <path d="M13.4129858,11.3007939 C15.4416014,11.3007939 17.0833333,12.9369284 17.0833333,14.9586273 L17.0833333,17.5 L15.0648104,17.5 L15.0648104,14.9586273 C15.0648104,14.0500362 14.3246853,13.3124346 13.4129858,13.3124346 L6.58701417,13.3124346 C5.67531465,13.3124346 4.93518958,14.0500362 4.93518958,14.9586273 L4.93518958,17.5 L2.91666667,17.5 L2.91666667,14.9586273 C2.91666667,12.9369284 4.55839864,11.3007939 6.58701417,11.3007939 L13.4129858,11.3007939 Z M9.99828426,2.5 C12.2119311,2.5 14.0050522,4.28700748 14.0050522,6.49310678 C14.0050522,8.69585334 12.2119311,10.4828608 9.99828426,10.4828608 C7.78463746,10.4828608 5.99151627,8.69585334 5.99151627,6.49310678 C5.99151627,4.28700748 7.78463746,2.5 9.99828426,2.5 Z M9.99828426,4.51164069 C8.90155347,4.51164069 8.01003918,5.40011533 8.01003918,6.49310678 C8.01003918,7.58274549 8.90155347,8.47122013 9.99828426,8.47122013 C11.095015,8.47122013 11.9865293,7.58274549 11.9865293,6.49310678 C11.9865293,5.40011533 11.095015,4.51164069 9.99828426,4.51164069 Z" id="Combined-Shape-Copy"></path>
                </g>
            </g>
        </g>
    </g>
</svg>