<?xml version="1.0" encoding="UTF-8"?>
<svg width="55px" height="75px" viewBox="0 0 55 75" version="1.1" xmlns="http://www.w3.org/2000/svg" xmlns:xlink="http://www.w3.org/1999/xlink">
    <title>Group 17</title>
    <g id="Page-1" stroke="none" stroke-width="1" fill="none" fill-rule="evenodd">
        <g id="new-copy-2" transform="translate(-808.000000, -2877.000000)">
            <g id="Group-17" transform="translate(807.999872, 2877.256132)">
                <g id="Group-9">
                    <path d="M54.4648414,27.5576455 C54.4648414,40.0875743 45.9029368,50.6169671 34.3080774,53.6089327 C33.796223,53.7426604 33.2766831,53.8615295 32.7522757,53.9627219 C32.7361362,53.9660523 32.7197404,53.9701513 32.7041133,53.9757873 C29.9109459,54.9562011 27.9114347,57.6169216 27.9114347,60.7436397 L27.9114347,60.9152825 C27.9114347,61.1104942 27.9193764,61.3039127 27.9347474,61.4955379 C27.9667703,61.8851928 27.6542266,62.2166941 27.2630346,62.2166941 C26.8720988,62.2166941 26.559555,61.8851928 26.5913218,61.4955379 C26.6072052,61.3039127 26.6148907,61.1104942 26.6148907,60.9152825 L26.6148907,60.7436397 C26.6148907,57.6461265 24.6522698,55.006413 21.9018851,54.0026866 C21.8844647,53.996282 21.8662756,53.9914145 21.8480866,53.9880841 C21.2657818,53.87895 20.6909063,53.7500897 20.1234602,53.6012472 C8.54653352,50.5936544 0,40.0747651 0,27.5576455 L0,27.2335735 C0,12.1927915 12.1930477,0 27.2335735,0 C42.2730746,0 54.4648414,12.1917667 54.4648414,27.2310117 L54.4648414,27.5576455 Z" id="Fill-1" fill="#161616"></path>
                    <path d="M27.2323438,72.5000484 C25.8643246,72.5000484 24.7524888,71.3907744 24.7524888,70.0199371 C24.7524888,68.6519179 25.8643246,67.5426439 27.2323438,67.5426439 C28.600363,67.5426439 29.7124551,68.6519179 29.7124551,70.0199371 C29.7124551,71.3907744 28.600363,72.5000484 27.2323438,72.5000484 M27.2323438,65.3602178 C24.6577009,65.3602178 22.5726244,67.4478561 22.5726244,70.0199371 C22.5726244,72.5948362 24.6577009,74.6801689 27.2323438,74.6801689 C29.8072429,74.6801689 31.8923194,72.5948362 31.8923194,70.0199371 C31.8923194,67.4478561 29.8072429,65.3602178 27.2323438,65.3602178" id="Fill-4" fill="#FFFFFF"></path>
                    <path d="M29.7123526,70.020014 C29.7123526,71.3908512 28.6002606,72.5001252 27.2322414,72.5001252 C25.8642221,72.5001252 24.7526425,71.3908512 24.7526425,70.020014 C24.7526425,68.6519948 25.8642221,67.5427208 27.2322414,67.5427208 C28.6002606,67.5427208 29.7123526,68.6519948 29.7123526,70.020014" id="Fill-7" fill="#161616"></path>
                </g>
                <circle id="Oval" fill="#FFFFFF" cx="27.2324207" cy="27.3400844" r="9.5"></circle>
                <circle id="Oval-Copy" fill="#FFFFFF" cx="27.2324207" cy="27.3400844" r="9.5"></circle>
            </g>
        </g>
    </g>
</svg>