<?xml version="1.0" encoding="UTF-8"?>
<svg width="19px" height="20px" viewBox="0 0 19 20" version="1.1" xmlns="http://www.w3.org/2000/svg" xmlns:xlink="http://www.w3.org/1999/xlink">
    <title>Group 8</title>
    <defs>
        <polygon id="path-1" points="2.5 2.49997738 21.1109524 2.49997738 21.1109524 21.3777893 2.5 21.3777893"></polygon>
    </defs>
    <g id="Page-1" stroke="none" stroke-width="1" fill="none" fill-rule="evenodd">
        <g id="my-cart-copy-2" transform="translate(-132.000000, -451.000000)">
            <g id="Group" transform="translate(130.000000, 449.000000)">
                <mask id="mask-2" fill="white">
                    <use xlink:href="#path-1"></use>
                </mask>
                <g id="Clip-2"></g>
                <path d="M18.7947619,16.1301929 C18.7721429,16.1437643 18.745,16.1573357 18.6952381,16.1573357 L4.91571429,16.1573357 C4.8297619,16.1573357 4.76190476,16.0894786 4.76190476,16.0035262 C4.76190476,15.9175738 4.78904762,15.8316214 4.80714286,15.7999548 L4.87047619,15.7320976 C4.98809524,15.6416214 5.07404762,15.5420976 5.15095238,15.4561452 C6.03309524,14.4835262 6.55785714,13.230431 6.62571429,11.9094786 L6.62571429,9.89185952 C6.62571429,9.18614524 6.76595238,8.51209762 7.01928571,7.89685952 C7.72047619,6.1778119 9.31285714,4.92019286 11.2490476,4.71662143 C11.4345238,4.70757381 11.642619,4.69400238 11.832619,4.69400238 C12.0180952,4.69400238 12.2171429,4.70757381 12.3709524,4.71662143 C13.5516667,4.83876429 14.6690476,5.37257381 15.5104762,6.21400238 C15.8452381,6.54876429 16.1302381,6.92424048 16.3609524,7.33138333 C16.7997619,8.10043095 17.0304762,8.97805 17.0304762,9.89185952 L17.0304762,11.6697167 C17.0304762,13.0992405 17.5688095,14.465431 18.5233333,15.4787643 C18.5866667,15.5737643 18.6680952,15.6642405 18.7766667,15.7637643 C18.8264286,15.8451929 18.8535714,15.9220976 18.8535714,16.0035262 C18.8535714,16.0487643 18.817381,16.0985262 18.7947619,16.1301929 M11.832619,19.120431 C11.2761905,19.120431 10.7695238,18.8535262 10.457381,18.4192405 L13.2033333,18.4192405 C12.8957143,18.8490024 12.3845238,19.120431 11.832619,19.120431 M20.3735714,14.1578119 L20.2695238,14.0537643 C19.6361905,13.4068595 19.2878571,12.5609071 19.2878571,11.6697167 L19.2878571,9.89185952 C19.2878571,9.38066905 19.2380952,8.88305 19.1385714,8.40352619 C19.0933333,8.19543095 19.0435714,7.98733571 18.9847619,7.78376429 C18.9214286,7.58019286 18.8535714,7.38114524 18.7766667,7.18209762 C18.7269048,7.05543095 18.672619,6.9332881 18.6138095,6.81114524 C18.2790476,6.07376429 17.8221429,5.40424048 17.2747619,4.82519286 C17.1797619,4.72566905 17.0802381,4.62614524 16.9807143,4.53114524 C16.94,4.48590714 16.8947619,4.44519286 16.8495238,4.40900238 C16.845,4.39995476 16.8359524,4.39543095 16.8314286,4.39090714 C16.727381,4.29590714 16.6188095,4.20543095 16.5102381,4.11947857 C16.5102381,4.11495476 16.5057143,4.11495476 16.5011905,4.11043095 C16.2297619,3.8932881 15.9402381,3.69424048 15.6371429,3.5178119 C15.5783333,3.48614524 15.5195238,3.44995476 15.4607143,3.41376429 C15.3159524,3.33685952 15.1666667,3.25995476 15.017381,3.19209762 C14.8952381,3.1378119 14.777619,3.08352619 14.6509524,3.03376429 C14.5288095,2.98400238 14.4066667,2.93876429 14.28,2.89352619 C14.1533333,2.8482881 14.0266667,2.81209762 13.8954762,2.77590714 C13.615,2.69447857 13.3254762,2.63114524 13.0314286,2.59043095 C12.9409524,2.57233571 12.8504762,2.55876429 12.76,2.54971667 C12.665,2.54066905 12.57,2.53162143 12.475,2.52257381 C12.285,2.50900238 12.0904762,2.49995476 11.8959524,2.49995476 L11.7602381,2.49995476 C9.72,2.49995476 7.87428571,3.3278119 6.5352381,4.66233571 C5.61238095,5.58066905 4.93380952,6.7432881 4.59904762,8.04614524 C4.57190476,8.15924048 4.5447619,8.27233571 4.52214286,8.38995476 L4.51761905,8.41257381 C4.495,8.52114524 4.47690476,8.62971667 4.45880952,8.7382881 L4.36833333,9.89185952 L4.36833333,11.8099548 C4.32761905,12.6151929 4.00190476,13.3842405 3.44547619,13.9723357 L3.36404762,14.0537643 C3.33238095,14.085431 3.28714286,14.1261452 3.26904762,14.1397167 L3.20571429,14.1894786 C2.75333333,14.6961452 2.5,15.3385262 2.5,16.0035262 C2.5,17.3335262 3.58571429,18.4192405 4.91571429,18.4192405 L8.00095238,18.4192405 C8.44428571,20.1473357 10.0230952,21.3778119 11.832619,21.3778119 C13.6421429,21.3778119 15.2209524,20.1473357 15.6642857,18.4192405 L18.6952381,18.4192405 C19.3421429,18.4192405 19.9438095,18.170431 20.4007143,17.7135262 C20.857619,17.24305 21.1109524,16.6368595 21.1109524,16.0035262 C21.1109524,15.3249548 20.8485714,14.6690024 20.3735714,14.1578119" id="Fill-1" fill="#333939" mask="url(#mask-2)"></path>
            </g>
        </g>
    </g>
</svg>