<?xml version="1.0" encoding="UTF-8"?>
<svg width="20px" height="18px" viewBox="0 0 20 18" version="1.1" xmlns="http://www.w3.org/2000/svg" xmlns:xlink="http://www.w3.org/1999/xlink">
    <title>Rectangle Copy</title>
    <g id="Page-1" stroke="none" stroke-width="1" fill="none" fill-rule="evenodd">
        <g id="my-cart-copy-2" transform="translate(-132.000000, -394.000000)" fill="#333939">
            <g id="Combined-Shape" transform="translate(130.000000, 391.000000)">
                <path d="M20.1268293,3.6845122 C20.1931707,3.6845122 20.2595122,3.68865854 20.3217073,3.70109756 C20.8234146,3.79231707 21.2007317,4.23182927 21.2007317,4.75841463 L21.2007317,4.75841463 L21.2007317,9.10792683 C21.2007317,9.64736585 20.8026829,10.0947561 20.2843902,10.1693902 L20.2843902,10.1693902 L20.2387805,17.9935366 C20.2221951,19.2789024 19.1731707,20.3154878 17.8878049,20.3154878 L17.8878049,20.3154878 L5.99609756,20.3154878 C4.68585366,20.3154878 3.62439024,19.2415854 3.64097561,17.9271951 L3.64097561,17.9271951 L3.68658537,10.1656585 C3.18073171,10.0785854 2.79926829,9.63865854 2.79926829,9.10792683 L2.79926829,9.10792683 L2.79926829,4.75841463 C2.79926829,4.2152439 3.20146341,3.76743902 3.72390244,3.69280488 C3.77365854,3.68865854 3.82341463,3.6845122 3.87317073,3.6845122 L3.87317073,3.6845122 Z M18.2112195,10.1822439 L5.7597561,10.1822439 L5.71414634,17.9400488 C5.71414634,18.035 5.74317073,18.1013415 5.79707317,18.1552439 C5.85097561,18.2132927 5.91731707,18.2423171 5.99609756,18.2423171 L5.99609756,18.2423171 L17.8878049,18.2423171 C18.0412195,18.2423171 18.1656098,18.1179268 18.1656098,17.9645122 L18.1656098,17.9645122 L18.2112195,10.1822439 Z M14.7407317,12 L14.7407317,14.0731707 L9.229,14.0731707 L9.229,12 L14.7407317,12 Z M19.127561,5.75809756 L4.87243902,5.75809756 L4.87243902,8.10907317 L19.127561,8.10907317 L19.127561,5.75809756 Z"></path>
            </g>
        </g>
    </g>
</svg>