<?xml version="1.0" encoding="UTF-8"?>
<svg width="24px" height="24px" viewBox="0 0 24 24" version="1.1" xmlns="http://www.w3.org/2000/svg" xmlns:xlink="http://www.w3.org/1999/xlink">
    <title>Path_196</title>
    <g id="Path_196" stroke="none" stroke-width="1" fill="none" fill-rule="evenodd">
        <path d="M20.2886242,4.94953334 C19.9734467,4.52372954 19.5729169,4.1685799 19.1127091,3.90684974 C18.2211381,3.29968967 17.1638549,2.98365636 16.0858692,3.00209482 C14.5363205,3.01932817 13.0620072,3.6739089 12.0086973,4.81231932 C11.404348,4.18293448 10.6817049,3.67945078 9.8823458,3.33083673 C9.25886965,3.09790667 8.59678977,2.98609393 7.93152537,3.00138016 C6.3300729,3.02576288 4.80957756,3.7106677 3.72877029,4.8945048 C2.57142846,6.18812118 1.95363806,7.87710328 2.0027152,9.61338059 L2.0027152,9.86279565 C2.0027152,12.0024767 3.17863037,14.0078024 4.77910229,15.7608544 C6.88645057,17.8620557 9.30863764,19.6205915 11.9580359,20.9728431 L12.0079837,21 L12.0579316,20.9728431 C12.3583322,20.7806005 17.2111229,18.3664914 20.0374579,14.9375703 C21.2332486,13.5638442 21.9219074,11.8205843 21.9882783,9.99929501 L21.9882783,9.80562314 C22.0939572,8.02426406 21.4816747,6.27490862 20.2886242,4.94953334 Z M20.7388685,9.77775155 L20.7388685,9.77775155 L20.7388685,9.99715104 C20.6782647,11.4800479 20.1031876,12.8953471 19.1127091,13.9992265 C17.0914903,16.2243674 14.6846531,18.0645202 12.0086973,19.4306147 C9.66711285,18.2195813 7.5313087,16.6455539 5.68030427,14.7667674 C4.0795945,13.011095 3.27923962,11.3650033 3.27923962,9.82849215 L3.27923962,9.58193571 C3.22611691,8.21379096 3.70086188,6.87766681 4.60499835,5.85071498 C5.46474643,4.91787642 6.66509707,4.37361267 7.93223891,4.34207545 C8.43375731,4.31666125 8.93532263,4.39123635 9.4078412,4.56147495 C10.0518814,4.84609969 10.6378024,5.24758153 11.1360369,5.7456605 L12.0115514,6.70615861 L12.9120399,5.77353209 C13.7376412,4.87645175 14.8956545,4.35948103 16.1136973,4.34421942 C16.9494608,4.33171256 17.7697376,4.5707116 18.4683818,5.0302895 L18.5932514,5.11247498 C18.8567618,5.26471404 19.0934853,5.45931429 19.2939484,5.68848799 L19.3438963,5.77067347 L19.4188181,5.85285895 C20.3341174,6.94886551 20.8070198,8.34812248 20.7445768,9.77560758 L20.7388685,9.77775155 Z" stroke="#000000" stroke-width="0.3" fill="#000000" fill-rule="nonzero"></path>
    </g>
</svg>