<?xml version="1.0" encoding="UTF-8"?>
<svg width="31px" height="16px" viewBox="0 0 31 16" version="1.1" xmlns="http://www.w3.org/2000/svg" xmlns:xlink="http://www.w3.org/1999/xlink">
    <title>Group 7 Copy</title>
    <g id="Page-1" stroke="none" stroke-width="1" fill="none" fill-rule="evenodd">
        <g id="new-copy-2" transform="translate(-245.000000, -1728.000000)">
            <g id="Group-4" transform="translate(100.000000, 1425.000000)">
                <g id="Group-7-Copy" transform="translate(145.000000, 303.000000)">
                    <rect id="Rectangle-Copy-6" fill="#FF4E4E" x="0" y="0" width="31" height="16"></rect>
                    <path d="M7.97826452,9.08642578 L7.97826452,8.29052734 L4.77513952,8.29052734 L4.77513952,9.08642578 L7.97826452,9.08642578 Z M11.7704241,11.5229492 L11.7704241,4.47705078 L10.8964007,4.47705078 L9.02140067,5.82470703 L9.02140067,6.75244141 L10.8133929,5.45361328 L10.8915179,5.45361328 L10.8915179,11.5229492 L11.7704241,11.5229492 Z M15.9239118,11.6889648 C17.5059431,11.6889648 18.4141462,10.3510742 18.4141462,8.01220703 C18.4141462,5.67822266 17.4912946,4.31103516 15.9239118,4.31103516 C14.3467634,4.31103516 13.4239118,5.67333984 13.4239118,7.99755859 C13.4239118,10.3413086 14.3369978,11.6889648 15.9239118,11.6889648 Z M15.9239118,10.9223633 C14.8838728,10.9223633 14.3077009,9.88232422 14.3077009,7.99755859 C14.3077009,6.13720703 14.8936384,5.08251953 15.9239118,5.08251953 C16.9541853,5.08251953 17.5303571,6.12744141 17.5303571,7.99755859 C17.5303571,9.88720703 16.9639509,10.9223633 15.9239118,10.9223633 Z M20.6486886,7.74853516 C21.5275949,7.74853516 22.147712,7.04541016 22.147712,6.04931641 C22.147712,5.05322266 21.5275949,4.35498047 20.6486886,4.35498047 C19.7697824,4.35498047 19.1447824,5.05810547 19.1447824,6.04931641 C19.1447824,7.04541016 19.7697824,7.74853516 20.6486886,7.74853516 Z M20.5705636,11.5229492 L22.9875558,8.21728516 L25.7219308,4.47705078 L24.8332589,4.47705078 L22.3625558,7.85107422 L19.6721261,11.5229492 L20.5705636,11.5229492 Z M20.6486886,7.12353516 C20.2141183,7.12353516 19.9260324,6.69873047 19.9260324,6.04931641 C19.9260324,5.39990234 20.2092355,4.97998047 20.6486886,4.97998047 C21.0881417,4.97998047 21.366462,5.39013672 21.366462,6.04931641 C21.366462,6.69384766 21.0783761,7.12353516 20.6486886,7.12353516 Z M24.725837,11.6450195 C25.6047433,11.6450195 26.2248605,10.9418945 26.2248605,9.94580078 C26.2248605,8.94970703 25.6047433,8.25146484 24.725837,8.25146484 C23.8469308,8.25146484 23.2219308,8.95458984 23.2219308,9.94580078 C23.2219308,10.9418945 23.8469308,11.6450195 24.725837,11.6450195 Z M24.725837,11.0200195 C24.2912667,11.0200195 24.0031808,10.5952148 24.0031808,9.94580078 C24.0031808,9.29638672 24.2863839,8.87646484 24.725837,8.87646484 C25.1652902,8.87646484 25.4436105,9.28662109 25.4436105,9.94580078 C25.4436105,10.590332 25.1555245,11.0200195 24.725837,11.0200195 Z" id="-10%" fill="#FFFFFF" fill-rule="nonzero"></path>
                </g>
            </g>
        </g>
    </g>
</svg>