<?xml version="1.0" encoding="UTF-8"?>
<svg width="20px" height="18px" viewBox="0 0 20 18" version="1.1" xmlns="http://www.w3.org/2000/svg" xmlns:xlink="http://www.w3.org/1999/xlink">
    <title>Shape</title>
    <g id="Symbols" stroke="none" stroke-width="1" fill="none" fill-rule="evenodd">
        <g id="ic_cart" transform="translate(-2.000000, -3.000000)" fill="#333939">
            <path d="M9.6358337,17.4771348 C10.6284037,17.4771348 11.4330943,18.2657841 11.4330943,19.2385674 C11.4330943,20.2113507 10.6284037,21 9.6358337,21 C8.64326372,21 7.83857306,20.2113507 7.83857306,19.2385674 C7.83857306,18.2657841 8.64326372,17.4771348 9.6358337,17.4771348 Z M18.0052546,17.4771348 C18.9978246,17.4771348 19.8025153,18.2657841 19.8025153,19.2385674 C19.8025153,20.2113507 18.9978246,21 18.0052546,21 C17.0126847,21 16.207994,20.2113507 16.207994,19.2385674 C16.207994,18.2657841 17.0126847,17.4771348 18.0052546,17.4771348 Z M5.91373174,3 C6.67442402,3 7.35033326,3.49855745 7.57203445,4.20312739 L7.60819048,4.33757704 L8.17182843,6.87376207 L20.1783802,6.8251229 C20.6073123,6.83207135 20.9830709,7.01620533 21.2347583,7.33930836 C21.4553294,7.62651105 21.5442581,7.99332069 21.4791371,8.34457496 L21.4474519,8.47538028 L19.7352686,14.3086059 C19.3547835,15.6070978 18.1636441,16.5290826 16.8014481,16.6036604 L16.6228528,16.6085435 L10.7737797,16.6085435 C9.31832856,16.6085435 8.03330493,15.635272 7.64983289,14.2724694 L7.60819048,14.1071007 L5.59823628,5.08453564 L2.5,5.08453564 L2.5,3 L5.91373174,3 Z M19.1078226,8.91660699 L8.63620938,8.95829771 L9.68549764,13.6623998 C9.78693611,14.1242046 10.1843836,14.4675979 10.6547878,14.5176951 L10.7737797,14.5240079 L16.6228528,14.5240079 C17.0776898,14.5240079 17.4872193,14.2457409 17.6562705,13.8367658 L17.6934104,13.7318843 L19.1078226,8.91660699 Z" id="Shape"></path>
        </g>
    </g>
</svg>