<?xml version="1.0" encoding="UTF-8"?>
<svg width="27px" height="21px" viewBox="0 0 27 21" version="1.1" xmlns="http://www.w3.org/2000/svg" xmlns:xlink="http://www.w3.org/1999/xlink">
    <title>Group 3 Copy</title>
    <g id="Page-1" stroke="none" stroke-width="1" fill="none" fill-rule="evenodd">
        <g id="my-cart-copy-2" transform="translate(-496.000000, -312.000000)" fill="#FFFFFF">
            <g id="Group" transform="translate(467.000000, 307.000000)">
                <g transform="translate(28.000000, 0.000000)" id="Group-3-Copy">
                    <path d="M27.887069,18.0107241 L27.887069,18.446931 C27.887069,22.1063276 24.9189655,25.074431 21.2586207,25.074431 L16.2706897,25.074431 L16.2706897,18.4564138 L19.5043103,18.4564138 L15.1801724,12.623569 L14.5637931,11.7890862 L13.9284483,12.623569 L11.1215517,16.3313276 L9.50948276,18.4564138 L12.9422414,18.4564138 L12.9422414,25.074431 L7.87844828,25.074431 C4.21810345,25.074431 1.25,22.1063276 1.25,18.446931 L1.25,18.0107241 C1.25,15.7158966 2.70086207,13.7434828 4.73017241,12.9839138 C4.68275862,12.7468448 4.6637931,12.5002931 4.6637931,12.2546897 C4.6637931,10.0831379 6.41810345,8.32882759 8.58017241,8.32882759 C9.34827586,8.32882759 10.0594828,8.54693103 10.6663793,8.93572414 C11.8612069,6.59348276 14.2982759,4.99943103 17.1146552,4.99943103 C21.1163793,4.99943103 24.3594828,8.24253448 24.3594828,12.2546897 C24.3594828,12.4917586 24.35,12.7193448 24.3215517,12.946931 C26.4077586,13.6856379 27.887069,15.6779655 27.887069,18.0107241" id="Fill-1"></path>
                </g>
            </g>
        </g>
    </g>
</svg>