<?xml version="1.0" encoding="UTF-8"?>
<svg width="18px" height="12px" viewBox="0 0 18 12" version="1.1" xmlns="http://www.w3.org/2000/svg" xmlns:xlink="http://www.w3.org/1999/xlink">
    <title>ic_ice</title>
    <g id="Page-1" stroke="none" stroke-width="1" fill="none" fill-rule="evenodd">
        <g id="sign-in" transform="translate(-900.000000, -474.000000)" fill="#8B8B8B" fill-rule="nonzero">
            <g id="Group-4" transform="translate(506.000000, 455.000000)">
                <g id="ic_ice" transform="translate(393.000000, 15.000000)">
                    <path d="M10.08125,13.925 C12.2895833,13.925 14.08125,12.1333333 14.08125,9.925 C14.08125,7.725 12.2895833,5.925 10.08125,5.925 C7.88125,5.925 6.08125,7.725 6.08125,9.925 C6.08125,12.1333333 7.88125,13.925 10.08125,13.925 Z M18.3645833,9.425 C18.5479167,9.76666667 18.5479167,10.1833333 18.3645833,10.5166667 C16.68125,13.5583333 13.7395833,15.6916667 10.0479167,15.6916667 C6.52291667,15.6916667 3.58958333,13.4908333 1.82291667,10.475 C1.61458333,10.1166667 1.61458333,9.66666667 1.82291667,9.30833333 C3.58958333,6.325 6.50625,4.16666667 10.00625,4.16666667 C13.73125,4.16666667 16.6979167,6.34166667 18.3645833,9.425 Z M12.9145,9.92516667 C12.9145,11.4918333 11.6478333,12.7576667 10.0811667,12.7576667 C8.52283333,12.7576667 7.24783333,11.4918333 7.24783333,9.92516667 C7.24783333,8.36683333 8.52283333,7.09183333 10.0811667,7.09183333 C11.6478333,7.09183333 12.9145,8.36683333 12.9145,9.92516667 Z" id="Shape"></path>
                </g>
            </g>
        </g>
    </g>
</svg>